<svg width="600" height="125" viewBox="0 0 600 125" fill="none" xmlns="http://www.w3.org/2000/svg">
<path d="M397.705 115.055C377.05 115.055 365.78 104.845 360.005 88.2199L379.65 80.0549C382.395 89.0949 389.475 94.4949 397.705 94.4949C404.925 94.4949 409.985 90.5549 409.985 84.4299C409.985 79.4699 407.095 75.5349 398.575 71.1599C396.555 70.1399 386.155 64.8899 384.42 63.8699C375.175 59.0549 366.94 50.7449 366.94 36.0149C366.94 20.4099 379.22 9.47485 397.855 9.47485C413.31 9.47485 421.835 16.1849 426.455 27.5599L407.53 37.3299C405.65 32.6649 402.475 29.5999 397.85 29.5999C393.66 29.5999 390.485 31.9349 390.485 35.7249C390.485 39.5149 392.36 41.9949 397.995 45.0599C399.15 45.6449 411.285 52.0599 412.44 52.7899C426.595 60.3749 433.24 69.7049 433.24 84.2899C433.24 100.625 419.52 115.06 397.705 115.06V115.055Z" fill="white"/>
<path d="M287.845 113.305V11.22H355.735V32.075H311.535V49.865H352.845V70.865H311.535V92.45H355.735V113.305H287.845Z" fill="white"/>
<path d="M244.565 115.055C223.91 115.055 212.645 104.845 206.865 88.2199L226.51 80.0549C229.255 89.0949 236.335 94.4949 244.565 94.4949C251.79 94.4949 256.845 90.5549 256.845 84.4299C256.845 79.4699 253.955 75.5349 245.435 71.1599C243.415 70.1399 233.015 64.8899 231.28 63.8699C222.035 59.0549 213.8 50.7449 213.8 36.0149C213.8 20.4099 226.08 9.47485 244.71 9.47485C260.165 9.47485 268.69 16.1849 273.31 27.5599L254.385 37.3299C252.51 32.6649 249.33 29.5999 244.705 29.5999C240.515 29.5999 237.34 31.9349 237.34 35.7249C237.34 39.5149 239.215 41.9949 244.85 45.0599C246.005 45.6449 258.14 52.0599 259.295 52.7899C273.45 60.3749 280.095 69.7049 280.095 84.2899C280.095 100.625 266.375 115.06 244.56 115.06L244.565 115.055Z" fill="white"/>
<path d="M150.575 72.325H172.82L161.695 39.365L150.575 72.325ZM113.015 113.305L150.72 11.22H173.255L210.525 113.305H186.835L179.755 93.18H143.645L136.42 113.305H113.02H113.015Z" fill="white"/>
<path d="M71.3299 115.055C41.8649 115.055 21.7849 92.305 21.7849 62.265C21.7849 32.225 41.7149 9.46997 72.9149 9.46997C93.2799 9.46997 108.305 18.365 115.96 34.115L95.8849 45.635C91.5499 36.445 84.4749 30.615 72.1949 30.615C57.8949 30.615 45.4699 42.865 45.4699 62.26C45.4699 81.655 58.6149 93.905 72.9149 93.905C84.1799 93.905 92.5599 88.07 96.8949 79.465L117.405 88.945C110.04 104.55 94.2949 115.05 71.3249 115.05L71.3299 115.055Z" fill="white"/>
<path d="M545.65 115.53C526.475 115.53 513.37 100.39 513.37 80.08C513.37 59.77 526.57 44.825 547.675 44.825C560.97 44.825 570.99 50.88 575.905 60.255L562.61 68.07C559.525 62.99 554.515 58.985 547.195 58.985C537.365 58.985 529.175 67.19 529.175 80.08C529.175 93.945 538.04 101.37 547.195 101.37C555.865 101.37 562.035 96 562.61 89.16H547.675V75.7799H578.22V114.355H567.235L564.73 107.615C560.395 112.4 553.265 115.525 545.65 115.525V115.53Z" fill="#4DB5DA"/>
<path d="M478.63 115.21C459.465 115.21 446.37 100.14 446.37 79.9199C446.37 59.6999 459.565 44.825 480.655 44.825C493.945 44.825 503.96 50.85 508.87 60.185L495.58 67.9649C492.5 62.9099 487.49 58.9249 480.17 58.9249C470.345 58.9249 462.16 67.09 462.16 79.925C462.16 93.73 471.02 101.12 480.17 101.12C488.835 101.12 495 95.7699 495.58 88.9649H480.655V75.6449H511.18V114.05H500.2L497.695 107.34C493.36 112.105 486.235 115.215 478.63 115.215V115.21Z" fill="#4DB5DA"/>
</svg>
