<svg width="843" height="189" viewBox="0 0 843 189" fill="none" xmlns="http://www.w3.org/2000/svg">
<path d="M13.49 31.1733C4.87056 34.6076 0.667193 44.3791 4.10147 52.9983L53.8481 177.853C57.2824 186.472 67.0537 190.676 75.673 187.241L145.904 159.259C154.523 155.825 158.727 146.053 155.292 137.434L105.546 12.5793C102.112 3.95992 92.3398 -0.243452 83.7206 3.19083L13.49 31.1733Z" fill="white"/>
<path d="M150.38 94.7909L150.101 27.3064C150.063 18.0281 142.51 10.5375 133.232 10.5758L116.852 10.6434L150.38 94.7909Z" fill="white"/>
<path d="M159.701 117.494L186.39 55.5107C190.06 46.9889 186.126 37.1059 177.605 33.4364L162.56 26.9585L159.701 117.494Z" fill="white"/>
<path d="M258.68 140V50.4H291.704C296.611 50.4 301.027 51.6373 304.952 54.112C308.92 56.5867 312.077 59.8933 314.424 64.032C316.771 68.128 317.944 72.6507 317.944 77.6C317.944 82.6347 316.749 87.2213 314.36 91.36C311.971 95.456 308.771 98.72 304.76 101.152C300.792 103.584 296.44 104.8 291.704 104.8H276.344V140H258.68ZM276.344 87.136H289.72C291.683 87.136 293.453 86.6667 295.032 85.728C296.611 84.7467 297.869 83.4453 298.808 81.824C299.789 80.16 300.28 78.3253 300.28 76.32C300.28 74.3573 299.789 72.5653 298.808 70.944C297.869 69.28 296.611 67.9573 295.032 66.976C293.453 65.9947 291.683 65.504 289.72 65.504H276.344V87.136ZM372.156 76H389.82V140H372.092L371.26 133.344C369.596 135.819 367.463 137.824 364.86 139.36C362.257 140.896 359.207 141.664 355.708 141.664C350.929 141.664 346.471 140.768 342.332 138.976C338.193 137.184 334.545 134.709 331.388 131.552C328.231 128.395 325.756 124.747 323.964 120.608C322.215 116.427 321.34 111.947 321.34 107.168C321.34 102.603 322.172 98.336 323.836 94.368C325.5 90.4 327.847 86.9013 330.876 83.872C333.905 80.8427 337.383 78.4747 341.308 76.768C345.276 75.0613 349.543 74.208 354.108 74.208C358.033 74.208 361.553 75.04 364.668 76.704C367.825 78.368 370.577 80.48 372.924 83.04L372.156 76ZM355.26 124.704C358.161 124.704 360.785 123.957 363.132 122.464C365.479 120.971 367.335 118.965 368.7 116.448C370.065 113.888 370.748 111.072 370.748 108C370.748 104.885 370.065 102.069 368.7 99.552C367.335 97.0347 365.479 95.0293 363.132 93.536C360.785 92.0427 358.161 91.296 355.26 91.296C352.316 91.296 349.649 92.0427 347.26 93.536C344.871 95.0293 342.972 97.056 341.564 99.616C340.156 102.133 339.452 104.928 339.452 108C339.452 111.072 340.156 113.888 341.564 116.448C343.015 118.965 344.935 120.971 347.324 122.464C349.713 123.957 352.359 124.704 355.26 124.704ZM439.318 119.776L455.19 128.352C452.246 132.363 448.555 135.584 444.118 138.016C439.681 140.448 434.838 141.664 429.59 141.664C423.702 141.664 418.326 140.149 413.462 137.12C408.641 134.091 404.779 130.037 401.878 124.96C399.019 119.84 397.59 114.187 397.59 108C397.59 103.307 398.422 98.9333 400.086 94.88C401.75 90.784 404.033 87.2 406.934 84.128C409.878 81.0133 413.291 78.5813 417.174 76.832C421.057 75.0827 425.195 74.208 429.59 74.208C434.838 74.208 439.681 75.424 444.118 77.856C448.555 80.288 452.246 83.552 455.19 87.648L439.318 96.224C437.995 94.816 436.481 93.7493 434.774 93.024C433.11 92.256 431.382 91.872 429.59 91.872C426.859 91.872 424.406 92.6187 422.23 94.112C420.097 95.6053 418.39 97.5893 417.11 100.064C415.873 102.496 415.254 105.141 415.254 108C415.254 110.816 415.894 113.44 417.174 115.872C418.454 118.304 420.161 120.267 422.294 121.76C424.47 123.253 426.902 124 429.59 124C431.425 124 433.174 123.616 434.838 122.848C436.502 122.08 437.995 121.056 439.318 119.776ZM523.697 140H503.345L489.777 116.64L481.969 125.92V140H464.305V44H481.969V98.464L500.785 76H523.825L501.873 102.304L523.697 140ZM534.555 140V50.4H564.251C570.438 50.4 576.219 51.5733 581.595 53.92C587.014 56.224 591.771 59.4453 595.867 63.584C600.006 67.68 603.227 72.4373 605.531 77.856C607.878 83.232 609.051 89.0133 609.051 95.2C609.051 101.387 607.878 107.189 605.531 112.608C603.227 117.984 600.006 122.741 595.867 126.88C591.771 130.976 587.014 134.197 581.595 136.544C576.219 138.848 570.438 140 564.251 140H534.555ZM552.219 122.336H564.251C567.92 122.336 571.376 121.632 574.619 120.224C577.904 118.816 580.806 116.875 583.323 114.4C585.84 111.925 587.803 109.045 589.211 105.76C590.662 102.475 591.387 98.9547 591.387 95.2C591.387 91.4453 590.662 87.9467 589.211 84.704C587.803 81.4187 585.84 78.5387 583.323 76.064C580.848 73.5467 577.968 71.584 574.683 70.176C571.44 68.768 567.963 68.064 564.251 68.064H552.219V122.336ZM619.994 140L619.93 76H637.594L637.658 80.736C639.791 78.688 642.287 77.088 645.146 75.936C648.047 74.784 651.098 74.208 654.298 74.208C656.645 74.208 658.991 74.5493 661.338 75.232L654.362 93.088C652.826 92.448 651.269 92.128 649.69 92.128C647.471 92.128 645.445 92.6613 643.61 93.728C641.775 94.7947 640.325 96.2453 639.258 98.08C638.191 99.872 637.658 101.899 637.658 104.16V140H619.994ZM712.281 76H729.945V140H712.217L711.385 133.344C709.721 135.819 707.588 137.824 704.985 139.36C702.382 140.896 699.332 141.664 695.833 141.664C691.054 141.664 686.596 140.768 682.457 138.976C678.318 137.184 674.67 134.709 671.513 131.552C668.356 128.395 665.881 124.747 664.089 120.608C662.34 116.427 661.465 111.947 661.465 107.168C661.465 102.603 662.297 98.336 663.961 94.368C665.625 90.4 667.972 86.9013 671.001 83.872C674.03 80.8427 677.508 78.4747 681.433 76.768C685.401 75.0613 689.668 74.208 694.233 74.208C698.158 74.208 701.678 75.04 704.793 76.704C707.95 78.368 710.702 80.48 713.049 83.04L712.281 76ZM695.385 124.704C698.286 124.704 700.91 123.957 703.257 122.464C705.604 120.971 707.46 118.965 708.825 116.448C710.19 113.888 710.873 111.072 710.873 108C710.873 104.885 710.19 102.069 708.825 99.552C707.46 97.0347 705.604 95.0293 703.257 93.536C700.91 92.0427 698.286 91.296 695.385 91.296C692.441 91.296 689.774 92.0427 687.385 93.536C684.996 95.0293 683.097 97.056 681.689 99.616C680.281 102.133 679.577 104.928 679.577 108C679.577 111.072 680.281 113.888 681.689 116.448C683.14 118.965 685.06 120.971 687.449 122.464C689.838 123.957 692.484 124.704 695.385 124.704ZM774.374 140H756.966L735.59 76H752.87L765.734 114.336L778.47 76H795.75L808.486 114.336L821.286 76H838.63L817.19 140H799.846L787.11 101.6L774.374 140Z" fill="white"/>
</svg>
